# wavefront obj file written by the visualization toolkit

mtllib /home/gerdogan/Dropbox/Code/Python/BDAoOSS/stimuli/stimuli20150624_144833/obj/o4_t2_rp_d2.mtl

v -0.550535 -0.87315 -0.106206
v -0.550535 -0.87315 0.106206
v -0.550535 -0.5 -0.106206
v -0.550535 -0.5 0.106206
v 0.550535 -0.87315 -0.106206
v 0.550535 -0.87315 0.106206
v 0.550535 -0.5 -0.106206
v 0.550535 -0.5 0.106206
v -0.550535 -0.87315 -0.106206
v -0.550535 -0.87315 0.106206
v 0.550535 -0.87315 -0.106206
v 0.550535 -0.87315 0.106206
v -0.550535 -0.5 -0.106206
v -0.550535 -0.5 0.106206
v 0.550535 -0.5 -0.106206
v 0.550535 -0.5 0.106206
v -0.550535 -0.87315 -0.106206
v 0.550535 -0.87315 -0.106206
v -0.550535 -0.5 -0.106206
v 0.550535 -0.5 -0.106206
v -0.550535 -0.87315 0.106206
v 0.550535 -0.87315 0.106206
v -0.550535 -0.5 0.106206
v 0.550535 -0.5 0.106206
vn -1 0 0
vn -1 0 0
vn -1 0 0
vn -1 0 0
vn 1 0 0
vn 1 0 0
vn 1 0 0
vn 1 0 0
vn 0 -1 0
vn 0 -1 0
vn 0 -1 0
vn 0 -1 0
vn 0 1 0
vn 0 1 0
vn 0 1 0
vn 0 1 0
vn 0 0 -1
vn 0 0 -1
vn 0 0 -1
vn 0 0 -1
vn 0 0 1
vn 0 0 1
vn 0 0 1
vn 0 0 1
vt 0 0
vt 1 0
vt 0 1
vt 1 1
vt -0 0
vt -1 0
vt -0 1
vt -1 1
vt -0 -0
vt -0 -1
vt -1 -0
vt -1 -1
vt 0 -0
vt 0 -1
vt 1 -0
vt 1 -1
vt -0 0
vt -1 0
vt -0 1
vt -1 1
vt 0 0
vt 1 0
vt 0 1
vt 1 1

g grp1
usemtl mtl1
f 1/1/1 2/2/2 4/4/4 3/3/3 
f 5/5/5 7/7/7 8/8/8 6/6/6 
f 9/9/9 11/11/11 12/12/12 10/10/10 
f 13/13/13 14/14/14 16/16/16 15/15/15 
f 17/17/17 19/19/19 20/20/20 18/18/18 
f 21/21/21 22/22/22 24/24/24 23/23/23 
v -0.563493 -1.45613 -0.118085
v -0.563493 -1.45613 0.118085
v -0.563493 -0.87315 -0.118085
v -0.563493 -0.87315 0.118085
v 0.563493 -1.45613 -0.118085
v 0.563493 -1.45613 0.118085
v 0.563493 -0.87315 -0.118085
v 0.563493 -0.87315 0.118085
v -0.563493 -1.45613 -0.118085
v -0.563493 -1.45613 0.118085
v 0.563493 -1.45613 -0.118085
v 0.563493 -1.45613 0.118085
v -0.563493 -0.87315 -0.118085
v -0.563493 -0.87315 0.118085
v 0.563493 -0.87315 -0.118085
v 0.563493 -0.87315 0.118085
v -0.563493 -1.45613 -0.118085
v 0.563493 -1.45613 -0.118085
v -0.563493 -0.87315 -0.118085
v 0.563493 -0.87315 -0.118085
v -0.563493 -1.45613 0.118085
v 0.563493 -1.45613 0.118085
v -0.563493 -0.87315 0.118085
v 0.563493 -0.87315 0.118085
vn -1 0 0
vn -1 0 0
vn -1 0 0
vn -1 0 0
vn 1 0 0
vn 1 0 0
vn 1 0 0
vn 1 0 0
vn 0 -1 0
vn 0 -1 0
vn 0 -1 0
vn 0 -1 0
vn 0 1 0
vn 0 1 0
vn 0 1 0
vn 0 1 0
vn 0 0 -1
vn 0 0 -1
vn 0 0 -1
vn 0 0 -1
vn 0 0 1
vn 0 0 1
vn 0 0 1
vn 0 0 1
vt 0 0
vt 1 0
vt 0 1
vt 1 1
vt -0 0
vt -1 0
vt -0 1
vt -1 1
vt -0 -0
vt -0 -1
vt -1 -0
vt -1 -1
vt 0 -0
vt 0 -1
vt 1 -0
vt 1 -1
vt -0 0
vt -1 0
vt -0 1
vt -1 1
vt 0 0
vt 1 0
vt 0 1
vt 1 1

g grp25
usemtl mtl25
f 25/25/25 26/26/26 28/28/28 27/27/27 
f 29/29/29 31/31/31 32/32/32 30/30/30 
f 33/33/33 35/35/35 36/36/36 34/34/34 
f 37/37/37 38/38/38 40/40/40 39/39/39 
f 41/41/41 43/43/43 44/44/44 42/42/42 
f 45/45/45 46/46/46 48/48/48 47/47/47 
v -0.75 -0.5 -0.5
v -0.75 -0.5 0.5
v -0.75 0.5 -0.5
v -0.75 0.5 0.5
v 0.75 -0.5 -0.5
v 0.75 -0.5 0.5
v 0.75 0.5 -0.5
v 0.75 0.5 0.5
v -0.75 -0.5 -0.5
v -0.75 -0.5 0.5
v 0.75 -0.5 -0.5
v 0.75 -0.5 0.5
v -0.75 0.5 -0.5
v -0.75 0.5 0.5
v 0.75 0.5 -0.5
v 0.75 0.5 0.5
v -0.75 -0.5 -0.5
v 0.75 -0.5 -0.5
v -0.75 0.5 -0.5
v 0.75 0.5 -0.5
v -0.75 -0.5 0.5
v 0.75 -0.5 0.5
v -0.75 0.5 0.5
v 0.75 0.5 0.5
vn -1 0 0
vn -1 0 0
vn -1 0 0
vn -1 0 0
vn 1 0 0
vn 1 0 0
vn 1 0 0
vn 1 0 0
vn 0 -1 0
vn 0 -1 0
vn 0 -1 0
vn 0 -1 0
vn 0 1 0
vn 0 1 0
vn 0 1 0
vn 0 1 0
vn 0 0 -1
vn 0 0 -1
vn 0 0 -1
vn 0 0 -1
vn 0 0 1
vn 0 0 1
vn 0 0 1
vn 0 0 1
vt 0 0
vt 1 0
vt 0 1
vt 1 1
vt -0 0
vt -1 0
vt -0 1
vt -1 1
vt -0 -0
vt -0 -1
vt -1 -0
vt -1 -1
vt 0 -0
vt 0 -1
vt 1 -0
vt 1 -1
vt -0 0
vt -1 0
vt -0 1
vt -1 1
vt 0 0
vt 1 0
vt 0 1
vt 1 1

g grp49
usemtl mtl49
f 49/49/49 50/50/50 52/52/52 51/51/51 
f 53/53/53 55/55/55 56/56/56 54/54/54 
f 57/57/57 59/59/59 60/60/60 58/58/58 
f 61/61/61 62/62/62 64/64/64 63/63/63 
f 65/65/65 67/67/67 68/68/68 66/66/66 
f 69/69/69 70/70/70 72/72/72 71/71/71 
