# wavefront obj file written by the visualization toolkit

mtllib /home/gerdogan/Dropbox/Code/Python/BDAoOSS/stimuli/stimuli20150624_144833/obj/o5_t2_ap_d1.mtl

v -0.442908 1.33405 -0.12939
v -0.442908 1.33405 0.12939
v -0.442908 1.61857 -0.12939
v -0.442908 1.61857 0.12939
v 0.442908 1.33405 -0.12939
v 0.442908 1.33405 0.12939
v 0.442908 1.61857 -0.12939
v 0.442908 1.61857 0.12939
v -0.442908 1.33405 -0.12939
v -0.442908 1.33405 0.12939
v 0.442908 1.33405 -0.12939
v 0.442908 1.33405 0.12939
v -0.442908 1.61857 -0.12939
v -0.442908 1.61857 0.12939
v 0.442908 1.61857 -0.12939
v 0.442908 1.61857 0.12939
v -0.442908 1.33405 -0.12939
v 0.442908 1.33405 -0.12939
v -0.442908 1.61857 -0.12939
v 0.442908 1.61857 -0.12939
v -0.442908 1.33405 0.12939
v 0.442908 1.33405 0.12939
v -0.442908 1.61857 0.12939
v 0.442908 1.61857 0.12939
vn -1 0 0
vn -1 0 0
vn -1 0 0
vn -1 0 0
vn 1 0 0
vn 1 0 0
vn 1 0 0
vn 1 0 0
vn 0 -1 0
vn 0 -1 0
vn 0 -1 0
vn 0 -1 0
vn 0 1 0
vn 0 1 0
vn 0 1 0
vn 0 1 0
vn 0 0 -1
vn 0 0 -1
vn 0 0 -1
vn 0 0 -1
vn 0 0 1
vn 0 0 1
vn 0 0 1
vn 0 0 1
vt 0 0
vt 1 0
vt 0 1
vt 1 1
vt -0 0
vt -1 0
vt -0 1
vt -1 1
vt -0 -0
vt -0 -1
vt -1 -0
vt -1 -1
vt 0 -0
vt 0 -1
vt 1 -0
vt 1 -1
vt -0 0
vt -1 0
vt -0 1
vt -1 1
vt 0 0
vt 1 0
vt 0 1
vt 1 1

g grp1
usemtl mtl1
f 1/1/1 2/2/2 4/4/4 3/3/3 
f 5/5/5 7/7/7 8/8/8 6/6/6 
f 9/9/9 11/11/11 12/12/12 10/10/10 
f 13/13/13 14/14/14 16/16/16 15/15/15 
f 17/17/17 19/19/19 20/20/20 18/18/18 
f 21/21/21 22/22/22 24/24/24 23/23/23 
v -0.724639 0.5 -0.398352
v -0.724639 0.5 0.398352
v -0.724639 1.33405 -0.398352
v -0.724639 1.33405 0.398352
v 0.724639 0.5 -0.398352
v 0.724639 0.5 0.398352
v 0.724639 1.33405 -0.398352
v 0.724639 1.33405 0.398352
v -0.724639 0.5 -0.398352
v -0.724639 0.5 0.398352
v 0.724639 0.5 -0.398352
v 0.724639 0.5 0.398352
v -0.724639 1.33405 -0.398352
v -0.724639 1.33405 0.398352
v 0.724639 1.33405 -0.398352
v 0.724639 1.33405 0.398352
v -0.724639 0.5 -0.398352
v 0.724639 0.5 -0.398352
v -0.724639 1.33405 -0.398352
v 0.724639 1.33405 -0.398352
v -0.724639 0.5 0.398352
v 0.724639 0.5 0.398352
v -0.724639 1.33405 0.398352
v 0.724639 1.33405 0.398352
vn -1 0 0
vn -1 0 0
vn -1 0 0
vn -1 0 0
vn 1 0 0
vn 1 0 0
vn 1 0 0
vn 1 0 0
vn 0 -1 0
vn 0 -1 0
vn 0 -1 0
vn 0 -1 0
vn 0 1 0
vn 0 1 0
vn 0 1 0
vn 0 1 0
vn 0 0 -1
vn 0 0 -1
vn 0 0 -1
vn 0 0 -1
vn 0 0 1
vn 0 0 1
vn 0 0 1
vn 0 0 1
vt 0 0
vt 1 0
vt 0 1
vt 1 1
vt -0 0
vt -1 0
vt -0 1
vt -1 1
vt -0 -0
vt -0 -1
vt -1 -0
vt -1 -1
vt 0 -0
vt 0 -1
vt 1 -0
vt 1 -1
vt -0 0
vt -1 0
vt -0 1
vt -1 1
vt 0 0
vt 1 0
vt 0 1
vt 1 1

g grp25
usemtl mtl25
f 25/25/25 26/26/26 28/28/28 27/27/27 
f 29/29/29 31/31/31 32/32/32 30/30/30 
f 33/33/33 35/35/35 36/36/36 34/34/34 
f 37/37/37 38/38/38 40/40/40 39/39/39 
f 41/41/41 43/43/43 44/44/44 42/42/42 
f 45/45/45 46/46/46 48/48/48 47/47/47 
v -1.68445 -0.205132 0.398796
v -1.68445 -0.205132 1.06171
v -1.68445 0.205132 0.398796
v -1.68445 0.205132 1.06171
v -0.254874 -0.205132 0.398796
v -0.254874 -0.205132 1.06171
v -0.254874 0.205132 0.398796
v -0.254874 0.205132 1.06171
v -1.68445 -0.205132 0.398796
v -1.68445 -0.205132 1.06171
v -0.254874 -0.205132 0.398796
v -0.254874 -0.205132 1.06171
v -1.68445 0.205132 0.398796
v -1.68445 0.205132 1.06171
v -0.254874 0.205132 0.398796
v -0.254874 0.205132 1.06171
v -1.68445 -0.205132 0.398796
v -0.254874 -0.205132 0.398796
v -1.68445 0.205132 0.398796
v -0.254874 0.205132 0.398796
v -1.68445 -0.205132 1.06171
v -0.254874 -0.205132 1.06171
v -1.68445 0.205132 1.06171
v -0.254874 0.205132 1.06171
vn -1 0 0
vn -1 0 0
vn -1 0 0
vn -1 0 0
vn 1 0 0
vn 1 0 0
vn 1 0 0
vn 1 0 0
vn 0 -1 0
vn 0 -1 0
vn 0 -1 0
vn 0 -1 0
vn 0 1 0
vn 0 1 0
vn 0 1 0
vn 0 1 0
vn 0 0 -1
vn 0 0 -1
vn 0 0 -1
vn 0 0 -1
vn 0 0 1
vn 0 0 1
vn 0 0 1
vn 0 0 1
vt 0 0
vt 1 0
vt 0 1
vt 1 1
vt -0 0
vt -1 0
vt -0 1
vt -1 1
vt -0 -0
vt -0 -1
vt -1 -0
vt -1 -1
vt 0 -0
vt 0 -1
vt 1 -0
vt 1 -1
vt -0 0
vt -1 0
vt -0 1
vt -1 1
vt 0 0
vt 1 0
vt 0 1
vt 1 1

g grp49
usemtl mtl49
f 49/49/49 50/50/50 52/52/52 51/51/51 
f 53/53/53 55/55/55 56/56/56 54/54/54 
f 57/57/57 59/59/59 60/60/60 58/58/58 
f 61/61/61 62/62/62 64/64/64 63/63/63 
f 65/65/65 67/67/67 68/68/68 66/66/66 
f 69/69/69 70/70/70 72/72/72 71/71/71 
v -0.13593 -0.82784 0.240772
v -0.13593 -0.82784 1.21973
v -0.13593 -0.412928 0.240772
v -0.13593 -0.412928 1.21973
v 0.13593 -0.82784 0.240772
v 0.13593 -0.82784 1.21973
v 0.13593 -0.412928 0.240772
v 0.13593 -0.412928 1.21973
v -0.13593 -0.82784 0.240772
v -0.13593 -0.82784 1.21973
v 0.13593 -0.82784 0.240772
v 0.13593 -0.82784 1.21973
v -0.13593 -0.412928 0.240772
v -0.13593 -0.412928 1.21973
v 0.13593 -0.412928 0.240772
v 0.13593 -0.412928 1.21973
v -0.13593 -0.82784 0.240772
v 0.13593 -0.82784 0.240772
v -0.13593 -0.412928 0.240772
v 0.13593 -0.412928 0.240772
v -0.13593 -0.82784 1.21973
v 0.13593 -0.82784 1.21973
v -0.13593 -0.412928 1.21973
v 0.13593 -0.412928 1.21973
vn -1 0 0
vn -1 0 0
vn -1 0 0
vn -1 0 0
vn 1 0 0
vn 1 0 0
vn 1 0 0
vn 1 0 0
vn 0 -1 0
vn 0 -1 0
vn 0 -1 0
vn 0 -1 0
vn 0 1 0
vn 0 1 0
vn 0 1 0
vn 0 1 0
vn 0 0 -1
vn 0 0 -1
vn 0 0 -1
vn 0 0 -1
vn 0 0 1
vn 0 0 1
vn 0 0 1
vn 0 0 1
vt 0 0
vt 1 0
vt 0 1
vt 1 1
vt -0 0
vt -1 0
vt -0 1
vt -1 1
vt -0 -0
vt -0 -1
vt -1 -0
vt -1 -1
vt 0 -0
vt 0 -1
vt 1 -0
vt 1 -1
vt -0 0
vt -1 0
vt -0 1
vt -1 1
vt 0 0
vt 1 0
vt 0 1
vt 1 1

g grp73
usemtl mtl73
f 73/73/73 74/74/74 76/76/76 75/75/75 
f 77/77/77 79/79/79 80/80/80 78/78/78 
f 81/81/81 83/83/83 84/84/84 82/82/82 
f 85/85/85 86/86/86 88/88/88 87/87/87 
f 89/89/89 91/91/91 92/92/92 90/90/90 
f 93/93/93 94/94/94 96/96/96 95/95/95 
v -0.41046 0.412928 0.548223
v -0.41046 0.412928 0.912283
v -0.41046 1.29754 0.548223
v -0.41046 1.29754 0.912283
v 0.41046 0.412928 0.548223
v 0.41046 0.412928 0.912283
v 0.41046 1.29754 0.548223
v 0.41046 1.29754 0.912283
v -0.41046 0.412928 0.548223
v -0.41046 0.412928 0.912283
v 0.41046 0.412928 0.548223
v 0.41046 0.412928 0.912283
v -0.41046 1.29754 0.548223
v -0.41046 1.29754 0.912283
v 0.41046 1.29754 0.548223
v 0.41046 1.29754 0.912283
v -0.41046 0.412928 0.548223
v 0.41046 0.412928 0.548223
v -0.41046 1.29754 0.548223
v 0.41046 1.29754 0.548223
v -0.41046 0.412928 0.912283
v 0.41046 0.412928 0.912283
v -0.41046 1.29754 0.912283
v 0.41046 1.29754 0.912283
vn -1 0 0
vn -1 0 0
vn -1 0 0
vn -1 0 0
vn 1 0 0
vn 1 0 0
vn 1 0 0
vn 1 0 0
vn 0 -1 0
vn 0 -1 0
vn 0 -1 0
vn 0 -1 0
vn 0 1 0
vn 0 1 0
vn 0 1 0
vn 0 1 0
vn 0 0 -1
vn 0 0 -1
vn 0 0 -1
vn 0 0 -1
vn 0 0 1
vn 0 0 1
vn 0 0 1
vn 0 0 1
vt 0 0
vt 1 0
vt 0 1
vt 1 1
vt -0 0
vt -1 0
vt -0 1
vt -1 1
vt -0 -0
vt -0 -1
vt -1 -0
vt -1 -1
vt 0 -0
vt 0 -1
vt 1 -0
vt 1 -1
vt -0 0
vt -1 0
vt -0 1
vt -1 1
vt 0 0
vt 1 0
vt 0 1
vt 1 1

g grp97
usemtl mtl97
f 97/97/97 98/98/98 100/100/100 99/99/99 
f 101/101/101 103/103/103 104/104/104 102/102/102 
f 105/105/105 107/107/107 108/108/108 106/106/106 
f 109/109/109 110/110/110 112/112/112 111/111/111 
f 113/113/113 115/115/115 116/116/116 114/114/114 
f 117/117/117 118/118/118 120/120/120 119/119/119 
v -0.115517 0.426181 -0.905048
v -0.115517 0.426181 -0.398352
v -0.115517 1.40787 -0.905048
v -0.115517 1.40787 -0.398352
v 0.115517 0.426181 -0.905048
v 0.115517 0.426181 -0.398352
v 0.115517 1.40787 -0.905048
v 0.115517 1.40787 -0.398352
v -0.115517 0.426181 -0.905048
v -0.115517 0.426181 -0.398352
v 0.115517 0.426181 -0.905048
v 0.115517 0.426181 -0.398352
v -0.115517 1.40787 -0.905048
v -0.115517 1.40787 -0.398352
v 0.115517 1.40787 -0.905048
v 0.115517 1.40787 -0.398352
v -0.115517 0.426181 -0.905048
v 0.115517 0.426181 -0.905048
v -0.115517 1.40787 -0.905048
v 0.115517 1.40787 -0.905048
v -0.115517 0.426181 -0.398352
v 0.115517 0.426181 -0.398352
v -0.115517 1.40787 -0.398352
v 0.115517 1.40787 -0.398352
vn -1 0 0
vn -1 0 0
vn -1 0 0
vn -1 0 0
vn 1 0 0
vn 1 0 0
vn 1 0 0
vn 1 0 0
vn 0 -1 0
vn 0 -1 0
vn 0 -1 0
vn 0 -1 0
vn 0 1 0
vn 0 1 0
vn 0 1 0
vn 0 1 0
vn 0 0 -1
vn 0 0 -1
vn 0 0 -1
vn 0 0 -1
vn 0 0 1
vn 0 0 1
vn 0 0 1
vn 0 0 1
vt 0 0
vt 1 0
vt 0 1
vt 1 1
vt -0 0
vt -1 0
vt -0 1
vt -1 1
vt -0 -0
vt -0 -1
vt -1 -0
vt -1 -1
vt 0 -0
vt 0 -1
vt 1 -0
vt 1 -1
vt -0 0
vt -1 0
vt -0 1
vt -1 1
vt 0 0
vt 1 0
vt 0 1
vt 1 1

g grp121
usemtl mtl121
f 121/121/121 122/122/122 124/124/124 123/123/123 
f 125/125/125 127/127/127 128/128/128 126/126/126 
f 129/129/129 131/131/131 132/132/132 130/130/130 
f 133/133/133 134/134/134 136/136/136 135/135/135 
f 137/137/137 139/139/139 140/140/140 138/138/138 
f 141/141/141 142/142/142 144/144/144 143/143/143 
v -0.254874 -0.412928 0.5
v -0.254874 -0.412928 0.960506
v -0.254874 0.412928 0.5
v -0.254874 0.412928 0.960506
v 0.254874 -0.412928 0.5
v 0.254874 -0.412928 0.960506
v 0.254874 0.412928 0.5
v 0.254874 0.412928 0.960506
v -0.254874 -0.412928 0.5
v -0.254874 -0.412928 0.960506
v 0.254874 -0.412928 0.5
v 0.254874 -0.412928 0.960506
v -0.254874 0.412928 0.5
v -0.254874 0.412928 0.960506
v 0.254874 0.412928 0.5
v 0.254874 0.412928 0.960506
v -0.254874 -0.412928 0.5
v 0.254874 -0.412928 0.5
v -0.254874 0.412928 0.5
v 0.254874 0.412928 0.5
v -0.254874 -0.412928 0.960506
v 0.254874 -0.412928 0.960506
v -0.254874 0.412928 0.960506
v 0.254874 0.412928 0.960506
vn -1 0 0
vn -1 0 0
vn -1 0 0
vn -1 0 0
vn 1 0 0
vn 1 0 0
vn 1 0 0
vn 1 0 0
vn 0 -1 0
vn 0 -1 0
vn 0 -1 0
vn 0 -1 0
vn 0 1 0
vn 0 1 0
vn 0 1 0
vn 0 1 0
vn 0 0 -1
vn 0 0 -1
vn 0 0 -1
vn 0 0 -1
vn 0 0 1
vn 0 0 1
vn 0 0 1
vn 0 0 1
vt 0 0
vt 1 0
vt 0 1
vt 1 1
vt -0 0
vt -1 0
vt -0 1
vt -1 1
vt -0 -0
vt -0 -1
vt -1 -0
vt -1 -1
vt 0 -0
vt 0 -1
vt 1 -0
vt 1 -1
vt -0 0
vt -1 0
vt -0 1
vt -1 1
vt 0 0
vt 1 0
vt 0 1
vt 1 1

g grp145
usemtl mtl145
f 145/145/145 146/146/146 148/148/148 147/147/147 
f 149/149/149 151/151/151 152/152/152 150/150/150 
f 153/153/153 155/155/155 156/156/156 154/154/154 
f 157/157/157 158/158/158 160/160/160 159/159/159 
f 161/161/161 163/163/163 164/164/164 162/162/162 
f 165/165/165 166/166/166 168/168/168 167/167/167 
v -1.8035 -0.468209 -0.210342
v -1.8035 -0.468209 0.210342
v -1.8035 0.468209 -0.210342
v -1.8035 0.468209 0.210342
v -0.75 -0.468209 -0.210342
v -0.75 -0.468209 0.210342
v -0.75 0.468209 -0.210342
v -0.75 0.468209 0.210342
v -1.8035 -0.468209 -0.210342
v -1.8035 -0.468209 0.210342
v -0.75 -0.468209 -0.210342
v -0.75 -0.468209 0.210342
v -1.8035 0.468209 -0.210342
v -1.8035 0.468209 0.210342
v -0.75 0.468209 -0.210342
v -0.75 0.468209 0.210342
v -1.8035 -0.468209 -0.210342
v -0.75 -0.468209 -0.210342
v -1.8035 0.468209 -0.210342
v -0.75 0.468209 -0.210342
v -1.8035 -0.468209 0.210342
v -0.75 -0.468209 0.210342
v -1.8035 0.468209 0.210342
v -0.75 0.468209 0.210342
vn -1 0 0
vn -1 0 0
vn -1 0 0
vn -1 0 0
vn 1 0 0
vn 1 0 0
vn 1 0 0
vn 1 0 0
vn 0 -1 0
vn 0 -1 0
vn 0 -1 0
vn 0 -1 0
vn 0 1 0
vn 0 1 0
vn 0 1 0
vn 0 1 0
vn 0 0 -1
vn 0 0 -1
vn 0 0 -1
vn 0 0 -1
vn 0 0 1
vn 0 0 1
vn 0 0 1
vn 0 0 1
vt 0 0
vt 1 0
vt 0 1
vt 1 1
vt -0 0
vt -1 0
vt -0 1
vt -1 1
vt -0 -0
vt -0 -1
vt -1 -0
vt -1 -1
vt 0 -0
vt 0 -1
vt 1 -0
vt 1 -1
vt -0 0
vt -1 0
vt -0 1
vt -1 1
vt 0 0
vt 1 0
vt 0 1
vt 1 1

g grp169
usemtl mtl169
f 169/169/169 170/170/170 172/172/172 171/171/171 
f 173/173/173 175/175/175 176/176/176 174/174/174 
f 177/177/177 179/179/179 180/180/180 178/178/178 
f 181/181/181 182/182/182 184/184/184 183/183/183 
f 185/185/185 187/187/187 188/188/188 186/186/186 
f 189/189/189 190/190/190 192/192/192 191/191/191 
v -0.75 -0.5 -0.5
v -0.75 -0.5 0.5
v -0.75 0.5 -0.5
v -0.75 0.5 0.5
v 0.75 -0.5 -0.5
v 0.75 -0.5 0.5
v 0.75 0.5 -0.5
v 0.75 0.5 0.5
v -0.75 -0.5 -0.5
v -0.75 -0.5 0.5
v 0.75 -0.5 -0.5
v 0.75 -0.5 0.5
v -0.75 0.5 -0.5
v -0.75 0.5 0.5
v 0.75 0.5 -0.5
v 0.75 0.5 0.5
v -0.75 -0.5 -0.5
v 0.75 -0.5 -0.5
v -0.75 0.5 -0.5
v 0.75 0.5 -0.5
v -0.75 -0.5 0.5
v 0.75 -0.5 0.5
v -0.75 0.5 0.5
v 0.75 0.5 0.5
vn -1 0 0
vn -1 0 0
vn -1 0 0
vn -1 0 0
vn 1 0 0
vn 1 0 0
vn 1 0 0
vn 1 0 0
vn 0 -1 0
vn 0 -1 0
vn 0 -1 0
vn 0 -1 0
vn 0 1 0
vn 0 1 0
vn 0 1 0
vn 0 1 0
vn 0 0 -1
vn 0 0 -1
vn 0 0 -1
vn 0 0 -1
vn 0 0 1
vn 0 0 1
vn 0 0 1
vn 0 0 1
vt 0 0
vt 1 0
vt 0 1
vt 1 1
vt -0 0
vt -1 0
vt -0 1
vt -1 1
vt -0 -0
vt -0 -1
vt -1 -0
vt -1 -1
vt 0 -0
vt 0 -1
vt 1 -0
vt 1 -1
vt -0 0
vt -1 0
vt -0 1
vt -1 1
vt 0 0
vt 1 0
vt 0 1
vt 1 1

g grp193
usemtl mtl193
f 193/193/193 194/194/194 196/196/196 195/195/195 
f 197/197/197 199/199/199 200/200/200 198/198/198 
f 201/201/201 203/203/203 204/204/204 202/202/202 
f 205/205/205 206/206/206 208/208/208 207/207/207 
f 209/209/209 211/211/211 212/212/212 210/210/210 
f 213/213/213 214/214/214 216/216/216 215/215/215 
